<svg height="512pt" viewBox="0 -16 512.00501 512" width="512pt" xmlns="http://www.w3.org/2000/svg"><path d="m244.949219 102.992188c0 23.382812-18.957031 42.339843-42.339844 42.339843s-42.339844-18.957031-42.339844-42.339843c0-23.382813 18.957031-42.339844 42.339844-42.339844s42.339844 18.957031 42.339844 42.339844zm0 0" fill="#ffcd6b"/><path d="m244.949219 102.992188c0 23.378906-18.957031 42.34375-42.335938 42.34375-9.457031 0-18.195312-3.09375-25.238281-8.34375.703125.027343 1.414062.050781 2.136719.050781 23.378906 0 42.34375-18.964844 42.34375-42.347657 0-13.925781-6.730469-26.285156-17.109375-33.992187 22.390625 1.113281 40.203125 19.625 40.203125 42.289063zm0 0" fill="#ffc143"/><path d="m493.023438 214.710938c-4.746094-6.0625-6.023438-14.203126-3.535157-21.492188 1.371094-4.03125 2.117188-8.351562 2.117188-12.847656 0-8.015625-2.367188-15.480469-6.445313-21.726563-4.355468-6.679687-4.941406-15.203125-1.792968-22.53125 1.976562-4.597656 2.976562-9.710937 2.746093-15.082031-.746093-17.390625-14.738281-31.703125-32.109375-32.8125-20.019531-1.277344-36.660156 14.582031-36.660156 34.328125 0 4.769531.972656 9.3125 2.726562 13.441406 3.140626 7.382813 2.644532 15.933594-1.742187 22.65625-4.074219 6.246094-6.445313 13.710938-6.445313 21.726563 0 4.609375.785157 9.035156 2.226563 13.152344 2.5625 7.316406.851563 15.359374-3.882813 21.5-7.160156 9.289062-11.273437 21.050781-10.839843 33.785156.953125 27.949218 24.203125 50.457031 52.167969 50.554687 29.019531.105469 52.578124-23.390625 52.578124-52.386719.003907-12.171874-4.148437-23.371093-11.109374-32.265624zm0 0" fill="#bfddba"/><path d="m504.132812 246.980469c0 28.992187-23.5625 52.484375-52.574218 52.382812-2.734375-.011719-5.429688-.230469-8.054688-.660156 24.984375-3.980469 44.089844-25.617187 44.089844-51.722656 0-12.171875-4.148438-23.375-11.109375-32.269531-4.75-6.0625-6.023437-14.207032-3.539063-21.488282 1.375-4.039062 2.117188-8.355468 2.117188-12.851562 0-8.015625-2.367188-15.480469-6.445312-21.730469-4.355469-6.683594-4.945313-15.199219-1.792969-22.53125 1.976562-4.597656 2.976562-9.707031 2.746093-15.078125-.660156-15.335938-11.621093-28.289062-26.117187-31.875 3.347656-.832031 6.894531-1.171875 10.550781-.941406 17.371094 1.109375 31.367188 15.425781 32.105469 32.816406.230469 5.371094-.769531 10.480469-2.742187 15.078125-3.148438 7.332031-2.566407 15.847656 1.792968 22.53125 4.074219 6.25 6.449219 13.714844 6.449219 21.730469 0 4.496094-.75 8.8125-2.121094 12.851562-2.484375 7.28125-1.214843 15.425782 3.535157 21.488282 6.960937 8.894531 11.109374 20.097656 11.109374 32.269531zm0 0" fill="#9fcc97"/><path d="m312.007812 472.640625h192.480469v-42.457031c-1.320312-19.570313-17.140625-35.449219-36.707031-36.847656-5.699219-.40625-11.164062.394531-16.171875 2.171874-2.347656.832032-4.910156-.175781-6.070313-2.382812-4.609374-8.785156-12.417968-14.136719-24.785156-16.140625-1.917968-.3125-3.480468-1.683594-3.976562-3.5625-1.90625-7.207031-8.804688-24.339844-31.246094-23.449219-14.777344.589844-26.929688 12.402344-26.660156 27.195313.066406 3.636719.863281 7.09375 2.246094 10.238281 1.230468 3.285156-1.300782 6.761719-4.804688 6.597656l-4.875-.222656c-22.046875 0-39.867188 18.089844-39.421875 40.238281zm0 0" fill="#509e49"/><path d="m467.777344 393.332031c-5.699219-.402343-11.160156.398438-16.167969 2.171875-2.34375.832032-4.910156-.167968-6.070313-2.382812-4.609374-8.777344-12.414062-14.136719-24.785156-16.140625-1.914062-.308594-3.476562-1.679688-3.976562-3.566407-1.90625-7.203124-8.808594-24.332031-31.246094-23.441406-12.644531.5-23.363281 9.21875-26.019531 20.988282 4.019531-2.054688 8.535156-3.277344 13.304687-3.464844 25.226563-1.003906 32.988282 18.261718 35.132813 26.355468.550781 2.113282 2.316406 3.65625 4.46875 4.007813 13.90625 2.253906 22.679687 8.273437 27.871093 18.152344 1.300782 2.476562 4.175782 3.617187 6.820313 2.675781 5.632813-1.992188 11.773437-2.894531 18.183594-2.445312 18.28125 1.3125 33.671875 13.875 39.191406 30.707031v-16.761719c-1.3125-19.574219-17.140625-35.453125-36.707031-36.855469zm0 0" fill="#44873e"/><path d="m7.511719 409.417969h38.804687v61.8125h-38.804687zm0 0" fill="#d7bda9"/><path d="m242.316406 409.417969h38.804688v61.8125h-38.804688zm0 0" fill="#d7bda9"/><path d="m264.511719 409.417969h16.609375v61.8125h-16.609375zm0 0" fill="#cdad92"/><path d="m29.4375 409.417969h16.878906v61.8125h-16.878906zm0 0" fill="#cdad92"/><path d="m281.121094 409.417969h-273.609375v-32.914063c0-2.765625 2.246093-5.007812 5.011719-5.007812h263.585937c2.765625 0 5.011719 2.242187 5.011719 5.007812zm0 0" fill="#b88a65"/><path d="m281.121094 376.5v32.921875h-16.527344v-32.921875c0-2.761719-2.246094-5.007812-5.011719-5.007812h16.53125c2.765625 0 5.007813 2.246093 5.007813 5.007812zm0 0" fill="#a87a52"/><path d="m210.324219 342.316406h30.734375v29.050782h-30.734375zm0 0" fill="#d7bda9"/><path d="m47.578125 342.316406h30.730469v29.050782h-30.730469zm0 0" fill="#d7bda9"/><path d="m62.945312 342.316406h15.363282v29.050782h-15.363282zm0 0" fill="#cdad92"/><path d="m225.691406 342.316406h15.363282v29.050782h-15.363282zm0 0" fill="#cdad92"/><path d="m276.113281 266.347656h-263.589843c-2.765626 0-5.011719 2.246094-5.011719 5.011719v65.824219c0 2.765625 2.246093 5.007812 5.011719 5.007812h263.585937c2.765625 0 5.011719-2.242187 5.011719-5.007812v-65.824219c0-2.769531-2.242188-5.011719-5.007813-5.011719zm0 0" fill="#b88a65"/><path d="m281.121094 271.363281v65.816407c0 2.765624-2.242188 5.011718-5.007813 5.011718h-17.703125c2.765625 0 5.011719-2.246094 5.011719-5.011718v-65.816407c0-2.777343-2.246094-5.007812-5.011719-5.007812h17.703125c2.765625 0 5.007813 2.230469 5.007813 5.007812zm0 0" fill="#a87a52"/><path d="m276.113281 258.835938h-263.589843c-6.90625 0-12.523438 5.617187-12.523438 12.523437v65.824219c0 6.90625 5.617188 12.523437 12.523438 12.523437h27.539062v14.277344h-27.539062c-6.90625 0-12.523438 5.617187-12.523438 12.519531v94.726563c0 4.152343 3.363281 7.515625 7.511719 7.515625h38.804687c4.148438 0 7.515625-3.363282 7.515625-7.515625v-54.296875h180.972657v54.296875c0 4.152343 3.363281 7.515625 7.511718 7.515625h38.804688c4.148437 0 7.511718-3.363282 7.511718-7.515625v-94.726563c0-6.902344-5.617187-12.519531-12.519531-12.519531h-27.542969v-14.28125h27.542969c6.902344 0 12.519531-5.617187 12.519531-12.519531v-65.824219c0-6.90625-5.617187-12.523437-12.519531-12.523437zm-237.308593 204.882812h-23.777344v-46.789062h23.777344zm234.800781 0h-23.773438v-46.789062h23.773438zm0-84.710938v22.894532h-258.578125v-22.894532zm-218.515625-15.152343v-14.023438h15.707031v14.023438zm162.746094 0v-14.023438h15.707031v14.023438zm55.769531-29.179688h-147.589844c-4.148437 0-7.511719 3.363281-7.511719 7.515625 0 4.148438 3.363282 7.511719 7.511719 7.511719h76.796875v14.277344h-116.988281v-14.277344h5.546875c4.148437 0 7.515625-3.363281 7.515625-7.511719 0-4.152344-3.367188-7.515625-7.515625-7.515625h-76.34375v-22.894531h258.578125zm0-37.917969h-258.578125v-22.894531h258.578125zm0 0"/><path d="m415.648438 251.558594c-3.710938-4.742188-4.707032-11.109375-2.765626-16.8125 1.078126-3.152344 1.660157-6.53125 1.660157-10.050782 0-6.269531-1.855469-12.109374-5.042969-16.996093-3.410156-5.226563-3.867188-11.894531-1.40625-17.625 1.546875-3.597657 2.332031-7.597657 2.152344-11.800781-.585938-13.605469-11.53125-24.800782-25.121094-25.667969-15.664062-1-28.679688 11.40625-28.679688 26.855469 0 3.730468.761719 7.285156 2.132813 10.515624 2.457031 5.777344 2.066406 12.464844-1.363281 17.722657-3.1875 4.886719-5.042969 10.726562-5.042969 16.996093 0 3.609376.617187 7.070313 1.742187 10.289063 2.003907 5.722656.664063 12.015625-3.039062 16.820313-5.601562 7.265624-8.816406 16.46875-8.476562 26.429687.746093 21.863281 18.933593 39.472656 40.808593 39.550781 22.703125.078125 41.132813-18.300781 41.132813-40.984375.003906-9.523437-3.242188-18.285156-8.691406-25.242187zm0 0" fill="#bfddba"/><path d="m424.339844 276.800781c0 22.683594-18.421875 41.066407-41.132813 40.984375-3.167969-.007812-6.261719-.390625-9.238281-1.109375 18.0625-4.28125 31.496094-20.507812 31.496094-39.875 0-9.527343-3.246094-18.28125-8.695313-25.242187-3.714843-4.738282-4.707031-11.113282-2.765625-16.8125 1.074219-3.15625 1.652344-6.53125 1.652344-10.046875 0-6.273438-1.851562-12.113281-5.039062-17-3.402344-5.230469-3.863282-11.890625-1.402344-17.621094 1.542968-3.597656 2.324218-7.605469 2.144531-11.800781-.46875-10.929688-7.621094-20.308594-17.460937-24.015625 3.46875-1.300781 7.265624-1.902344 11.230468-1.652344 13.585938.863281 24.535156 12.0625 25.117188 25.667969.179687 4.195312-.601563 8.203125-2.144532 11.800781-2.464843 5.730469-2.015624 12.390625 1.402344 17.621094 3.183594 4.886719 5.039063 10.726562 5.039063 17 0 3.515625-.582031 6.890625-1.664063 10.046875-1.941406 5.699218-.941406 12.074218 2.773438 16.8125 5.441406 6.960937 8.6875 15.714844 8.6875 25.242187zm0 0" fill="#9fcc97"/><path d="m511.984375 429.679688c-1.574219-23.324219-20.347656-42.171876-43.667969-43.839844-3.054687-.214844-6.078125-.140625-9.058594.214844v-79.660157c13.117188-1.628906 25.253907-7.503906 34.769532-16.984375 11.363281-11.324218 17.621094-26.394531 17.621094-42.433594 0-13.515624-4.394532-26.277343-12.710938-36.898437-3.121094-3.984375-4.015625-9.515625-2.339844-14.433594 1.671875-4.90625 2.523438-10.046875 2.523438-15.269531 0-9.210938-2.652344-18.144531-7.664063-25.835938-2.914062-4.460937-3.367187-10.386718-1.1875-15.457031 2.496094-5.8125 3.625-11.992187 3.351563-18.375-.90625-21.078125-18.097656-38.640625-39.136719-39.984375-11.730469-.75-22.878906 3.246094-31.410156 11.253906-8.414063 7.894532-13.242188 19.039063-13.242188 30.570313 0 5.679687 1.121094 11.1875 3.324219 16.382813 2.242188 5.265624 1.820312 11.101562-1.117188 15.609374-.710937 1.089844-1.371093 2.210938-1.988281 3.351563-5.902343-7.265625-14.667969-12.15625-24.445312-12.78125-4.945313-.320313-9.769531.394531-14.347657 2.117187-3.886718 1.457032-5.851562 5.789063-4.390624 9.675782 1.457031 3.882812 5.789062 5.851562 9.675781 4.390625 2.574219-.96875 5.300781-1.363281 8.105469-1.191407 9.726562.621094 17.671874 8.746094 18.089843 18.496094.128907 2.960938-.390625 5.824219-1.542969 8.507813-3.503906 8.160156-2.753906 17.390625 2.015626 24.695312 2.5 3.835938 3.820312 8.292969 3.820312 12.894531 0 2.613282-.421875 5.179688-1.257812 7.625-2.796876 8.203126-1.316407 17.128907 3.964843 23.867188 4.640625 5.933594 7.09375 13.058594 7.09375 20.613281 0 8.960938-3.496093 17.382813-9.847656 23.707031-4.507813 4.496094-10.054687 7.535157-16.109375 8.917969v-19.289062l14.320312-12.570313c3.117188-2.738281 3.425782-7.484375.6875-10.605468-2.734374-3.117188-7.484374-3.425782-10.601562-.6875l-4.40625 3.867187v-28.601563l8.789062-7.714843c3.117188-2.738281 3.425782-7.484375.691407-10.601563-2.429688-2.765625-6.429688-3.316406-9.480469-1.503906v-25.351562c0-4.148438-3.363281-7.511719-7.511719-7.511719-4.152343 0-7.515625 3.363281-7.515625 7.511719v25.351562c-3.050781-1.8125-7.050781-1.261719-9.476562 1.503906-2.738282 3.117188-2.429688 7.863282.6875 10.601563l8.789062 7.714843v28.601563l-4.40625-3.867187c-3.117187-2.738282-7.863281-2.429688-10.601562.6875-2.738282 3.121093-2.429688 7.867187.6875 10.605468l14.324218 12.570313v19.25c-14.351562-3.386719-25.417968-16.195313-25.9375-31.410157-.269531-7.898437 2.121094-15.363281 6.917969-21.585937 5.402344-7.007813 6.964844-15.9375 4.179688-23.890625-.875-2.5-1.320313-5.125-1.320313-7.804688 0-4.601562 1.324219-9.0625 3.824219-12.894531 4.742187-7.273437 5.484375-16.53125 1.984375-24.765625-1.019531-2.394531-1.535156-4.945312-1.535156-7.578125l.003906-.417969c.085938-4.148437-3.207031-7.578124-7.355469-7.664062-4.183593-.050781-7.582031 3.207031-7.667969 7.355469-.003906.242187-.007812.484375-.007812.730469 0 4.660156.917969 9.1875 2.730469 13.453124 1.539062 3.617188 1.261719 7.613282-.738281 10.679688-4.097657 6.28125-6.261719 13.578125-6.261719 21.101562 0 4.375.726562 8.671876 2.164062 12.769532 1.097657 3.140625.386719 6.785156-1.898437 9.75-6.859375 8.898437-10.421875 20.003906-10.039063 31.277344.792969 23.230468 18.550781 42.605468 40.957031 46.203124v19.421876c-14.378906 4.558593-24.765624 17.898437-24.484374 33.183593.054687 3.085938.515624 6.101563 1.375 9.015625l-.949219-.042968c-.117188-.003907-.234375-.007813-.347657-.007813-12.71875 0-24.625 5.003906-33.527343 14.085937-8.882813 9.0625-13.644531 21.042969-13.410157 33.738282l-.007812 38.550781c0 1.992187.789062 3.902344 2.199219 5.3125 1.410156 1.410156 3.320312 2.203125 5.3125 2.203125h192.480469c4.148437 0 7.511718-3.363281 7.511718-7.515625v-42.453125c-.003906-.171875-.011718-.339844-.019531-.507812zm-87.359375-266.933594c5.679688-8.707032 6.5625-19.808594 2.363281-29.695313-1.414062-3.324219-2.128906-6.859375-2.128906-10.503906 0-7.507813 3.015625-14.472656 8.496094-19.613281 5.035156-4.726563 11.507812-7.273438 18.382812-7.273438.589844 0 1.1875.019532 1.785157.054688 13.484374.863281 24.503906 12.125 25.082031 25.636718.179687 4.109376-.542969 8.078126-2.140625 11.796876-4.207032 9.78125-3.304688 20.847656 2.402344 29.597656 3.417968 5.242187 5.226562 11.335937 5.226562 17.625 0 3.570312-.578125 7.078125-1.71875 10.421875-3.347656 9.816406-1.578125 20.488281 4.730469 28.546875 6.222656 7.953125 9.515625 17.507812 9.515625 27.636718 0 12.015626-4.691406 23.304688-13.203125 31.789063-6.667969 6.644531-15.058594 10.925781-24.160157 12.449219v-28.136719l19.019532-16.695313c3.117187-2.734374 3.425781-7.484374.6875-10.601562-2.738282-3.117188-7.484375-3.429688-10.601563-.691406l-9.105469 7.992187v-42.121093l11.949219-10.488282c3.117188-2.738281 3.425781-7.484375.6875-10.605468-2.738281-3.117188-7.484375-3.425782-10.601562-.6875l-2.03125 1.785156v-36.800782c0-4.148437-3.367188-7.511718-7.515625-7.511718-4.148438 0-7.511719 3.363281-7.511719 7.511718v36.796876l-2.03125-1.78125c-3.121094-2.738282-7.867187-2.429688-10.605469.6875-2.738281 3.121093-2.429687 7.867187.691406 10.605468l11.945313 10.488282v42.121093l-9.101563-7.992187c-3.121093-2.738282-7.867187-2.425782-10.605468.691406-2.738282 3.117188-2.429688 7.867188.691406 10.601562l19.015625 16.695313v28.113281c-4.730469-.824218-9.226563-2.417968-13.355469-4.628906.644532-3.179688.980469-6.445312.980469-9.761719 0-10.941406-3.558594-21.273437-10.289063-29.875-2.105468-2.6875-2.707031-6.425781-1.570312-9.753906 1.367188-4.011719 2.058594-8.207031 2.058594-12.476563 0-4.050781-.648438-8.027343-1.867188-11.824218 3.074219-6.972656 3.5-14.734375 1.011719-21.828125-1.195313-3.417969-1.800781-7.011719-1.800781-10.667969-.003906-6.292969 1.800781-12.386719 5.222656-17.628906zm-33.753906 161.96875c10.070312-1.554688 19.363281-6.230469 26.71875-13.558594 3.148437-3.140625 5.800781-6.636719 7.941406-10.394531 5.871094 2.882812 12.167969 4.800781 18.699219 5.625v72.945312c-5.316407-4.738281-12.15625-7.878906-20.664063-9.484375-2.429687-7.835937-10.363281-25.519531-32.695312-27.269531zm106.101562 140.414062h-177.449218l.007812-31.105468c0-.054688 0-.105469 0-.152344-.175781-8.660156 3.0625-16.828125 9.113281-23 6.015625-6.136719 14.046875-9.535156 22.632813-9.578125l4.6875.21875c4.183594.183593 8.140625-1.710938 10.601562-5.089844 2.460938-3.382813 3.054688-7.738281 1.589844-11.652344-.050781-.132812-.105469-.265625-.160156-.394531-1.023438-2.320312-1.5625-4.789062-1.613282-7.347656-.1875-10.34375 8.539063-19.113282 19.449219-19.546875 15.515625-.636719 21.4375 9.371093 23.683594 17.859375 1.246094 4.71875 5.1875 8.273437 10.039063 9.058594 9.765624 1.585937 15.730468 5.351562 19.335937 12.214843 2.917969 5.558594 9.324219 8.070313 15.234375 5.972657 4.195312-1.488282 8.609375-2.078126 13.121094-1.757813 15.808594 1.128906 28.546875 13.84375 29.726562 29.621094zm0 0"/><path d="m175.445312 163.691406c10.777344 0 19.515626-8.738281 19.515626-19.515625 0-10.78125-8.738282-19.515625-19.515626-19.515625-1.292968 0-2.554687.128906-3.773437.371094-.335937-20.71875-17.226563-37.410156-38.019531-37.410156-21.007813 0-38.035156 17.027344-38.035156 38.035156 0 2.378906.226562 4.707031.644531 6.964844-3.550781-4.820313-9.253907-7.960938-15.703125-7.960938-10.777344 0-19.515625 8.738282-19.515625 19.515625 0 10.777344 8.738281 19.515625 19.515625 19.515625zm0 0" fill="#64dcfc"/><path d="m194.964844 144.175781c0 8.851563-5.898438 16.328125-13.984375 18.710938.242187-1.238281.367187-2.507813.367187-3.8125 0-8.328125-5.484375-15.9375-13.398437-18.546875-4.144531-1.367188-7.507813.015625-10.027344-4.039063-1.8125-2.917969-1.335937-6.996093-2.605469-10.148437-1.886718-4.683594-4.71875-8.976563-8.273437-12.566406-7.101563-7.167969-16.917969-11.261719-27.007813-11.261719-7.449218 0-14.394531 2.136719-20.246094 5.84375 6.273438-12.3125 19.085938-20.738281 33.859376-20.738281 20.792968 0 37.691406 16.691406 38.019531 37.417968 1.222656-.246094 2.488281-.382812 3.785156-.382812 10.769531 0 19.511719 8.742187 19.511719 19.523437zm0 0" fill="#00d1fc"/><path d="m301.988281 59.507812c-7.367187 0-13.339843-5.972656-13.339843-13.339843 0-7.367188 5.972656-13.339844 13.339843-13.339844.882813 0 1.746094.089844 2.582031.253906.230469-14.15625 11.769532-25.566406 25.984376-25.566406 14.355468 0 25.996093 11.636719 25.996093 25.996094 0 1.625-.15625 3.214843-.441406 4.757812 2.425781-3.292969 6.324219-5.441406 10.730469-5.441406 7.367187 0 13.339844 5.972656 13.339844 13.339844 0 7.367187-5.972657 13.339843-13.339844 13.339843zm0 0" fill="#64dcfc"/><path d="m380.097656 44.683594c.550782 5.066406-1.867187 10.070312-6.175781 12.792968 1.0625-.671874-1.21875-4.820312-1.675781-5.441406-1.1875-1.597656-2.851563-2.820312-4.640625-3.660156-2.890625-1.347656-5.761719-1.050781-8.828125-.425781-1.828125.371093-3.671875.675781-5.542969.527343-2.960937-.238281-5.984375-1.550781-7.589844-4.050781-3.238281-5.046875-.199219-11.867187-3.648437-16.933593-2.964844-4.351563-8.785156-7.101563-13.828125-7.863282-8.992188-1.363281-17.296875 1.898438-22.867188 7.761719 3.027344-12.628906 15.292969-21.65625 29.246094-19.578125 13.132813 1.957031 22.433594 13.316406 21.984375 26.585938-.046875 1.320312-.1875 2.613281-.425781 3.875 2.769531-3.746094 7.425781-6.007813 12.566406-5.316407 5.984375.800781 10.769531 5.722657 11.425781 11.726563zm0 0" fill="#00d1fc"/><path d="m202.609375 53.140625c-21.492187 0-39.835937 13.679687-46.820313 32.785156-6.574218-3.699219-14.128906-5.820312-22.140624-5.820312-22.648438 0-41.492188 16.617187-44.972657 38.300781-2.601562-.824219-5.335937-1.261719-8.117187-1.261719-14.902344 0-27.03125 12.125-27.03125 27.027344 0 14.90625 12.128906 27.03125 27.03125 27.03125h94.886718c11.878907 0 21.988282-7.710937 25.601563-18.386719.519531.015625 1.039063.027344 1.5625.027344 27.488281 0 49.851563-22.363281 49.851563-49.851562.003906-27.488282-22.363282-49.851563-49.851563-49.851563zm-27.164063 103.035156h-94.886718c-6.617188 0-12-5.382812-12-12 0-6.621093 5.382812-12.003906 12-12.003906 3.839844 0 7.359375 1.789063 9.65625 4.90625 2.078125 2.820313 5.824218 3.832031 9.039062 2.4375 3.210938-1.394531 5.035156-4.820313 4.398438-8.261719-.347656-1.871094-.523438-3.753906-.523438-5.597656 0-16.832031 13.691406-30.523438 30.523438-30.523438 16.554687 0 30.238281 13.464844 30.507812 30.019532.035156 2.226562 1.054688 4.320312 2.785156 5.71875 1.726563 1.398437 3.988282 1.964844 6.171876 1.53125.78125-.152344 1.566406-.230469 2.328124-.230469 6.621094 0 12.003907 5.382813 12.003907 12.003906 0 6.617188-5.386719 12-12.003907 12zm27.164063-18.355469c-.300781 0-.597656-.027343-.898437-.035156-2.652344-10.898437-11.921876-19.234375-23.296876-20.480468-1.476562-7.859376-5-15.027344-9.980468-20.925782 3.097656-16.050781 17.234375-28.214844 34.175781-28.214844 19.203125 0 34.828125 15.625 34.828125 34.828126 0 19.203124-15.625 34.828124-34.828125 34.828124zm0 0"/><path d="m366.839844 25.316406c-1.25 0-2.492188.113282-3.707032.335938-3.542968-14.699219-16.804687-25.64843775-32.578124-25.64843775-15.683594 0-29.019532 11.00390575-32.574219 25.69921875-9.585938 1.875-16.84375 10.339844-16.84375 20.464844 0 11.5 9.355469 20.851562 20.851562 20.851562h64.851563c11.5 0 20.855468-9.351562 20.855468-20.851562 0-11.496094-9.355468-20.851563-20.855468-20.851563zm0 26.675782h-64.851563c-3.210937 0-5.824219-2.613282-5.824219-5.824219 0-3.210938 2.613282-5.824219 5.824219-5.824219.367188 0 .746094.039062 1.128907.113281 2.183593.425781 4.449218-.132812 6.179687-1.53125 1.726563-1.398437 2.75-3.492187 2.785156-5.71875.164063-10.023437 8.449219-18.179687 18.472657-18.179687 10.191406 0 18.480468 8.292968 18.480468 18.484375 0 1.113281-.105468 2.257812-.316406 3.390625-.636719 3.441406 1.1875 6.867187 4.398438 8.261718 3.214843 1.394532 6.960937.382813 9.039062-2.433593 1.117188-1.519531 2.824219-2.386719 4.683594-2.386719 3.214844 0 5.824218 2.609375 5.824218 5.824219.003907 3.210937-2.609374 5.824219-5.824218 5.824219zm0 0"/></svg>