<svg id="Layer_1" enable-background="new 0 0 511.979 511.979" height="512" viewBox="0 0 511.979 511.979" width="512" xmlns="http://www.w3.org/2000/svg"><g><g><g><g><g><circle cx="396.999" cy="76.148" fill="#f6df7f" r="38.533"/><path d="m424.246 48.902c-2.603-2.602-5.489-4.744-8.554-6.446 8.141 14.658 5.999 33.494-6.446 45.939-12.446 12.445-31.282 14.587-45.939 6.446 1.702 3.065 3.844 5.951 6.446 8.554 15.048 15.048 39.445 15.048 54.493 0s15.048-39.446 0-54.493z" fill="#efd06f"/><path d="m349.623 119.282-10.349-10.349c-14.591-14.591-14.591-38.249 0-52.84l37.669-37.669c14.591-14.591 38.249-14.591 52.84 0l10.349 10.349c1.172 1.172 1.172 3.071 0 4.243l-86.267 86.267c-1.171 1.17-3.07 1.17-4.242-.001z" fill="#4f6d8f"/><path d="m440.133 28.772-10.349-10.349c-11.2-11.2-27.737-13.793-41.42-7.799 4.144 1.815 8.029 4.408 11.42 7.799 6.887 6.887 6.887 18.054 0 24.942l-62.915 62.916c.754.912 1.552 1.799 2.406 2.653l10.349 10.349c1.172 1.172 3.071 1.172 4.243 0l86.267-86.267c1.17-1.173 1.17-3.072-.001-4.244z" fill="#455e7e"/></g></g></g><g><g><g><circle cx="114.98" cy="76.148" fill="#f6df7f" r="38.533"/><path d="m102.733 88.395c-12.445-12.445-14.587-31.282-6.446-45.939-3.065 1.702-5.951 3.844-8.554 6.446-15.048 15.048-15.048 39.445 0 54.493s39.446 15.048 54.493 0c2.602-2.602 4.744-5.489 6.446-8.554-14.657 8.141-33.493 5.999-45.939-6.446z" fill="#efd06f"/><path d="m162.356 119.282 10.349-10.349c14.591-14.591 14.591-38.249 0-52.84l-37.669-37.669c-14.591-14.591-38.249-14.591-52.84 0l-10.35 10.348c-1.172 1.172-1.172 3.071 0 4.243l86.267 86.267c1.172 1.171 3.071 1.171 4.243 0z" fill="#4f6d8f"/><path d="m172.706 56.092-37.669-37.669c-11.2-11.2-27.737-13.793-41.42-7.799 4.144 1.815 8.029 4.408 11.42 7.799l37.669 37.669c13.738 13.738 14.537 35.51 2.406 50.188l13.002 13.002c1.171 1.172 3.071 1.172 4.243 0l10.349-10.349c14.591-14.592 14.591-38.25 0-52.841z" fill="#455e7e"/></g></g></g><path d="m331.526 504.479h-151.073c-5.523 0-10-4.477-10-10v-10c0-5.523 4.477-10 10-10h151.073c5.523 0 10 4.477 10 10v10c0 5.523-4.477 10-10 10z" fill="#4f6d8f"/><path d="m331.526 474.479h-30c5.523 0 10 4.477 10 10v10c0 5.523-4.477 10-10 10h30c5.523 0 10-4.477 10-10v-10c0-5.523-4.477-10-10-10z" fill="#455e7e"/><path d="m270.99 233.942v176.073h-30v-176.073c0-5.523 4.477-10 10-10h10c5.522 0 10 4.478 10 10z" fill="#4f6d8f"/><path d="m288.604 474.416h-65.229v-96.973c0-5.523 4.477-10 10-10h45.229c5.523 0 10 4.477 10 10z" fill="#f6df7f"/><path d="m278.604 367.443h-30c5.523 0 10 4.477 10 10v96.973h30v-96.973c0-5.523-4.477-10-10-10z" fill="#efd06f"/></g><path d="m88.041 141.143c-4.094-.666-7.938 2.122-8.598 6.21l-4.077 25.291c-.659 4.089 2.121 7.939 6.211 8.598 3.997.644 7.944-2.088 8.598-6.21l4.077-25.291c.659-4.09-2.121-7.939-6.211-8.598zm-30.442-16.381-18.287 18.287c-2.929 2.929-2.929 7.678 0 10.606 2.93 2.93 7.677 2.929 10.607 0l18.287-18.287c2.929-2.929 2.929-7.678 0-10.606-2.929-2.929-7.677-2.929-10.607 0zm-5.773-19.836c-.659-4.089-4.509-6.873-8.599-6.21l-25.291 4.078c-4.089.659-6.869 4.509-6.21 8.598.663 4.115 4.582 6.869 8.599 6.21l25.291-4.078c4.089-.659 6.87-4.508 6.21-8.598zm402.554 19.836c-2.93-2.929-7.678-2.929-10.607 0s-2.929 7.678 0 10.606l18.287 18.287c2.93 2.929 7.678 2.929 10.607 0s2.929-7.678 0-10.606zm39.662-21.968-25.291-4.078c-4.092-.664-7.94 2.121-8.599 6.21s2.121 7.939 6.21 8.598l25.291 4.078c3.995.649 7.934-2.089 8.599-6.21.659-4.089-2.121-7.939-6.21-8.598zm-61.507 44.559c-.659-4.089-4.517-6.874-8.598-6.21-4.09.659-6.87 4.509-6.211 8.598l4.077 25.291c.654 4.115 4.58 6.858 8.598 6.21 4.09-.659 6.87-4.509 6.211-8.598zm1.88-98.013 11.023-11.023c4.092-4.093 4.092-10.754-.001-14.848l-10.35-10.35c-17.494-17.493-45.954-17.491-63.448 0l-4.482 4.482c-2.929 2.929-2.929 7.678 0 10.606 2.93 2.929 7.678 2.929 10.607 0l4.481-4.482c11.644-11.643 30.589-11.645 42.234 0l7.168 7.167-79.903 79.903-7.167-7.167c-5.642-5.641-8.747-13.14-8.747-21.117s3.106-15.477 8.747-21.117l8.518-8.518c2.929-2.929 2.929-7.678 0-10.606-2.93-2.929-7.678-2.929-10.607 0l-8.518 8.518c-8.474 8.474-13.14 19.74-13.14 31.724 0 5.889 1.133 11.603 3.285 16.899l-55.759 55.525c-5.016 4.999-9.166 10.772-12.366 17.023-3.2-6.251-7.351-12.025-12.368-17.025l-55.758-55.523c2.152-5.296 3.285-11.01 3.285-16.899 0-11.983-4.666-23.25-13.14-31.724l-37.67-37.669c-17.492-17.493-45.953-17.491-63.447 0l-10.351 10.351c-4.092 4.093-4.092 10.754.001 14.848l11.022 11.022c-12.886 17.975-11.271 43.219 4.864 59.365 16.038 16.048 41.225 17.848 59.362 4.86l11.021 11.021c4.005 4.045 10.831 4.061 14.848-.001 1.502-1.518 10.702-10.623 12.037-12.138l53.339 53.115c9.821 9.787 15.454 23.348 15.454 37.208v13.873c-8.466 1.22-15 8.502-15 17.3v126.001h-.114c-9.649 0-17.5 7.851-17.5 17.5v22.865c0 4.142 3.357 7.5 7.5 7.5s7.5-3.358 7.5-7.5v-22.865c0-1.378 1.121-2.5 2.5-2.5h45.229c1.379 0 2.5 1.122 2.5 2.5v89.473h-50.229v-31.607c0-4.142-3.357-7.5-7.5-7.5s-7.5 3.358-7.5 7.5v31.67h-35.422c-9.649 0-17.5 7.851-17.5 17.5v10c0 9.649 7.851 17.5 17.5 17.5h151.072c9.649 0 17.5-7.851 17.5-17.5v-10c0-9.649-7.851-17.5-17.5-17.5h-35.422v-89.536c0-9.649-7.851-17.5-17.5-17.5h-.114v-126.002c0-8.798-6.534-16.081-15-17.3v-13.873c0-13.859 5.633-27.421 15.452-37.206l53.34-53.116c2.704 2.859 9.505 9.604 12.037 12.137 4.026 4.027 10.831 4.064 14.851.001l11.02-11.02c18.113 12.979 43.343 11.167 59.365-4.864 16.133-16.143 17.747-41.386 4.861-59.361zm-341.381 48.757c-10.266-10.273-11.813-26.012-4.651-37.938l42.586 42.586c-11.925 7.163-27.665 5.616-37.935-4.648zm74.368 5.532-7.167 7.167-79.904-79.903 7.167-7.167c11.644-11.643 30.589-11.645 42.234 0l37.669 37.669c5.641 5.641 8.747 13.14 8.747 21.117.001 7.977-3.105 15.476-8.746 21.117zm164.124 378.35c1.379 0 2.5 1.122 2.5 2.5v10c0 1.378-1.121 2.5-2.5 2.5h-151.073c-1.379 0-2.5-1.122-2.5-2.5v-10c0-1.378 1.121-2.5 2.5-2.5zm-68.036-122.036h-15v-126.001c0-1.378 1.121-2.5 2.5-2.5h10c1.379 0 2.5 1.122 2.5 2.5zm155.458-261.849c-10.272 10.266-26.012 11.814-37.938 4.651l42.586-42.586c7.161 11.927 5.614 27.665-4.648 37.935z" fill="#1e1d21"/></g></svg>